<?xml version="1.0" encoding="utf-8"?>
<!-- Generator: Adobe Illustrator 19.2.1, SVG Export Plug-In . SVG Version: 6.00 Build 0)  -->
<!DOCTYPE svg PUBLIC "-//W3C//DTD SVG 1.1//EN" "http://www.w3.org/Graphics/SVG/1.1/DTD/svg11.dtd">
<svg version="1.1" id="Layer_1" xmlns="http://www.w3.org/2000/svg" xmlns:xlink="http://www.w3.org/1999/xlink" x="0px" y="0px"
	 viewBox="0 0 150 150" style="enable-background:new 0 0 150 150;" xml:space="preserve">
<style type="text/css">
	.st0{fill:#E6E7E8;}
</style>
<g>
	<path class="st0" d="M108.1,42.4c-3.1,0-5.7,0.9-7.9,2.6c-3.5,2.7-5.2,7.3-5.2,13.8c0,5.5,1.1,9.6,3.3,12.3
		c2.2,2.7,5.6,4.1,10.3,4.1c2.5,0,4.8-0.7,7-2.2c4.1-2.6,6.2-7.2,6.2-13.6c0-5.2-1.2-9.3-3.7-12.4S112.3,42.4,108.1,42.4z"/>
	<path class="st0" d="M0,0v150h150V0H0z M49.6,120.1H31.1V56.6H9.4V44.3c5.7-0.3,9.7-0.6,12-1.1c3.6-0.8,6.6-2.4,8.9-4.8
		c1.6-1.7,2.7-3.9,3.5-6.6c0.5-1.7,0.7-2.9,0.7-3.7h15.1V120.1z M136.3,101.5c-5.4,14.2-15.4,21.3-29.8,21.3c-6.9,0-13.1-2-18.6-6.1
		c-5.5-4.1-8.7-10-9.5-17.9h18c0.4,2.7,1.6,4.9,3.4,6.6c1.9,1.7,4.3,2.5,7.4,2.5c6,0,10.2-3.3,12.6-9.9c1.3-3.6,2.1-9,2.5-15.9
		c-1.7,2.1-3.4,3.7-5.3,4.8c-3.4,2-7.6,3-12.5,3c-7.3,0-13.8-2.5-19.5-7.6c-5.7-5.1-8.5-12.3-8.5-21.9c0-9.9,2.8-17.8,8.5-24
		c5.7-6.1,13.1-9.2,22.2-9.2c14,0,23.6,6.2,28.8,18.6c3,7,4.4,16.3,4.4,27.7C140.6,84.7,139.2,94,136.3,101.5z"/>
</g>
</svg>
