<?xml version="1.0" encoding="utf-8"?>
<!-- Generator: Adobe Illustrator 19.2.1, SVG Export Plug-In . SVG Version: 6.00 Build 0)  -->
<!DOCTYPE svg PUBLIC "-//W3C//DTD SVG 1.1//EN" "http://www.w3.org/Graphics/SVG/1.1/DTD/svg11.dtd">
<svg version="1.1" id="Layer_1" xmlns="http://www.w3.org/2000/svg" xmlns:xlink="http://www.w3.org/1999/xlink" x="0px" y="0px"
	 viewBox="0 0 150 150" style="enable-background:new 0 0 150 150;" xml:space="preserve">
<style type="text/css">
	.st0{fill:#E6E7E8;}
</style>
<path class="st0" d="M0,0v150h150V0H0z M70.4,120.1h-63c0.2-6.6,1.6-12.6,4.3-18.1c2.6-6.1,8.7-12.6,18.3-19.5
	c8.3-6,13.7-10.2,16.2-12.8c3.8-4,5.6-8.4,5.6-13.2c0-3.9-1.1-7.1-3.2-9.7c-2.2-2.6-5.2-3.9-9.3-3.9c-5.5,0-9.2,2.1-11.2,6.2
	c-1.1,2.4-1.8,6.1-2,11.3H8.4c0.3-7.8,1.7-14.2,4.3-19c4.8-9.2,13.4-13.8,25.7-13.8c9.7,0,17.5,2.7,23.3,8.1
	c5.8,5.4,8.6,12.5,8.6,21.4c0,6.8-2,12.9-6.1,18.2C61.5,78.8,57.1,82.7,51,87l-7.2,5.1c-4.5,3.2-7.6,5.5-9.3,7
	c-1.7,1.4-3.1,3.1-4.2,5h40.2V120.1z M134.5,113.5c-5.4,5.9-13.4,8.9-23.9,8.9c-13,0-22.1-4.3-27.1-12.8c-2.7-4.5-4.1-10.5-4.4-17.8
	h17.8c0,3.7,0.6,6.7,1.8,9.1c2.2,4.4,6.2,6.7,12,6.7c3.5,0,6.6-1.2,9.3-3.6c2.6-2.4,4-5.9,4-10.5c0-6.1-2.4-10.1-7.3-12.1
	c-2.8-1.1-7.2-1.7-13.2-1.7V66.7c5.9-0.1,10-0.7,12.3-1.7c4-1.8,6-5.4,6-10.8c0-3.5-1-6.4-3.1-8.6c-2-2.2-4.9-3.3-8.6-3.3
	c-4.3,0-7.4,1.4-9.4,4.1c-2,2.7-3,6.3-2.9,10.9H80.7c0.2-4.6,1-8.9,2.3-13c1.5-3.6,3.8-6.9,7-10c2.4-2.2,5.2-3.8,8.4-5
	c3.3-1.1,7.2-1.7,12-1.7c8.8,0,15.9,2.3,21.3,6.8s8.1,10.7,8.1,18.3c0,5.4-1.6,10-4.8,13.7c-2,2.3-4.1,3.9-6.3,4.8
	c1.7,0,4,1.4,7.1,4.3c4.6,4.3,6.9,10.1,6.9,17.5C142.6,100.8,139.9,107.6,134.5,113.5z"/>
</svg>
