<?xml version="1.0" encoding="utf-8"?>
<!-- Generator: Adobe Illustrator 19.2.1, SVG Export Plug-In . SVG Version: 6.00 Build 0)  -->
<!DOCTYPE svg PUBLIC "-//W3C//DTD SVG 1.1//EN" "http://www.w3.org/Graphics/SVG/1.1/DTD/svg11.dtd">
<svg version="1.1" id="Layer_1" xmlns="http://www.w3.org/2000/svg" xmlns:xlink="http://www.w3.org/1999/xlink" x="0px" y="0px"
	 viewBox="0 0 150 150" style="enable-background:new 0 0 150 150;" xml:space="preserve">
<style type="text/css">
	.st0{fill:#E6E7E8;}
</style>
<g>
	<polygon class="st0" points="112.5,87.1 112.5,47.4 89.5,87.1 	"/>
	<path class="st0" d="M0,0v150h150V0H0z M49.5,121H31V57.5H9.4V45.2c5.7-0.3,9.7-0.6,12-1.1c3.6-0.8,6.6-2.4,8.9-4.8
		c1.6-1.7,2.7-3.8,3.5-6.6c0.5-1.7,0.7-2.9,0.7-3.7h15.1V121z M140.6,101.2h-10.4V121h-17.7v-19.8H76.1V85.4l33.8-55.9h20.3v57.5
		h10.4V101.2z"/>
</g>
</svg>
