<?xml version="1.0" encoding="utf-8"?>
<!-- Generator: Adobe Illustrator 19.2.1, SVG Export Plug-In . SVG Version: 6.00 Build 0)  -->
<!DOCTYPE svg PUBLIC "-//W3C//DTD SVG 1.1//EN" "http://www.w3.org/Graphics/SVG/1.1/DTD/svg11.dtd">
<svg version="1.1" id="Layer_1" xmlns="http://www.w3.org/2000/svg" xmlns:xlink="http://www.w3.org/1999/xlink" x="0px" y="0px"
	 viewBox="0 0 150 150" style="enable-background:new 0 0 150 150;" xml:space="preserve">
<style type="text/css">
	.st0{fill:#E6E7E8;}
</style>
<path class="st0" d="M0,0v150h150V0H0z M70.4,121.2h-63c0.2-6.6,1.6-12.6,4.3-18.1c2.6-6.1,8.7-12.6,18.3-19.5
	c8.3-6,13.7-10.2,16.2-12.8c3.8-4,5.6-8.4,5.6-13.2c0-3.9-1.1-7.1-3.2-9.7s-5.2-3.9-9.3-3.9c-5.5,0-9.2,2.1-11.2,6.2
	c-1.1,2.4-1.8,6.1-2,11.3H8.3c0.3-7.8,1.7-14.2,4.3-19c4.8-9.2,13.4-13.8,25.7-13.8c9.7,0,17.5,2.7,23.3,8.1
	c5.8,5.4,8.6,12.5,8.6,21.4c0,6.8-2,12.9-6.1,18.2c-2.7,3.5-7.1,7.4-13.2,11.7l-7.2,5.1c-4.5,3.2-7.6,5.5-9.3,7s-3.1,3.1-4.2,5h40.2
	V121.2z M142.7,121.2h-63c0.2-6.6,1.6-12.6,4.3-18.1c2.6-6.1,8.7-12.6,18.3-19.5c8.3-6,13.7-10.2,16.2-12.8c3.8-4,5.6-8.4,5.6-13.2
	c0-3.9-1.1-7.1-3.2-9.7s-5.2-3.9-9.3-3.9c-5.5,0-9.2,2.1-11.2,6.2c-1.1,2.4-1.8,6.1-2,11.3H80.6c0.3-7.8,1.7-14.2,4.3-19
	c4.8-9.2,13.4-13.8,25.7-13.8c9.7,0,17.5,2.7,23.3,8.1c5.8,5.4,8.6,12.5,8.6,21.4c0,6.8-2,12.9-6.1,18.2c-2.7,3.5-7.1,7.4-13.2,11.7
	l-7.2,5.1c-4.5,3.2-7.6,5.5-9.3,7s-3.1,3.1-4.2,5h40.2V121.2z"/>
</svg>
