<?xml version="1.0" encoding="utf-8"?>
<!-- Generator: Adobe Illustrator 19.2.1, SVG Export Plug-In . SVG Version: 6.00 Build 0)  -->
<!DOCTYPE svg PUBLIC "-//W3C//DTD SVG 1.1//EN" "http://www.w3.org/Graphics/SVG/1.1/DTD/svg11.dtd">
<svg version="1.1" id="Layer_1" xmlns="http://www.w3.org/2000/svg" xmlns:xlink="http://www.w3.org/1999/xlink" x="0px" y="0px"
	 viewBox="0 0 150 150" style="enable-background:new 0 0 150 150;" xml:space="preserve">
<style type="text/css">
	.st0{fill:#E6E7E8;}
</style>
<g>
	<path class="st0" d="M110.5,42.4c-3.1,0-5.7,0.9-7.9,2.6c-3.5,2.7-5.2,7.3-5.2,13.8c0,5.5,1.1,9.6,3.3,12.3
		c2.2,2.7,5.6,4.1,10.3,4.1c2.5,0,4.8-0.7,7-2.2c4.1-2.6,6.2-7.2,6.2-13.6c0-5.2-1.2-9.3-3.7-12.4S114.8,42.4,110.5,42.4z"/>
	<path class="st0" d="M0,0v150h150V0H0z M70,120.1H7c0.2-6.6,1.6-12.6,4.3-18.1c2.6-6.1,8.7-12.6,18.3-19.5
		c8.3-6,13.7-10.2,16.2-12.8c3.8-4,5.6-8.4,5.6-13.2c0-3.9-1.1-7.1-3.2-9.7c-2.2-2.6-5.2-3.9-9.3-3.9c-5.5,0-9.2,2.1-11.2,6.2
		c-1.1,2.4-1.8,6.1-2,11.3H8c0.3-7.8,1.7-14.2,4.3-19c4.8-9.2,13.4-13.8,25.7-13.8c9.7,0,17.5,2.7,23.3,8.1
		c5.8,5.4,8.6,12.5,8.6,21.4c0,6.8-2,12.9-6.1,18.2c-2.7,3.5-7.1,7.4-13.2,11.7l-7.2,5.1c-4.5,3.2-7.6,5.5-9.3,7
		c-1.7,1.4-3.1,3.1-4.2,5H70V120.1z M138.8,101.5c-5.4,14.2-15.4,21.3-29.8,21.3c-6.9,0-13.1-2-18.6-6.1c-5.5-4.1-8.7-10-9.5-17.9
		h18c0.4,2.7,1.6,4.9,3.4,6.6c1.9,1.7,4.3,2.5,7.4,2.5c6,0,10.2-3.3,12.6-9.9c1.3-3.6,2.1-9,2.5-15.9c-1.7,2.1-3.4,3.7-5.3,4.8
		c-3.4,2-7.6,3-12.5,3c-7.3,0-13.8-2.5-19.5-7.6c-5.7-5.1-8.5-12.3-8.5-21.9c0-9.9,2.8-17.8,8.5-24c5.7-6.1,13.1-9.2,22.2-9.2
		c14,0,23.6,6.2,28.8,18.6c3,7,4.4,16.3,4.4,27.7C143,84.7,141.6,94,138.8,101.5z"/>
</g>
</svg>
