<?xml version="1.0" encoding="utf-8"?>
<!-- Generator: Adobe Illustrator 19.2.1, SVG Export Plug-In . SVG Version: 6.00 Build 0)  -->
<!DOCTYPE svg PUBLIC "-//W3C//DTD SVG 1.1//EN" "http://www.w3.org/Graphics/SVG/1.1/DTD/svg11.dtd">
<svg version="1.1" id="Layer_1" xmlns="http://www.w3.org/2000/svg" xmlns:xlink="http://www.w3.org/1999/xlink" x="0px" y="0px"
	 viewBox="0 0 150 150" style="enable-background:new 0 0 150 150;" xml:space="preserve">
<style type="text/css">
	.st0{fill:#E6E7E8;}
</style>
<g>
	<path class="st0" d="M0,0v150h150V0H0z M70.1,120.2h-63c0.2-6.6,1.6-12.6,4.3-18.1C13.9,96,20,89.5,29.6,82.6
		c8.3-6,13.7-10.2,16.2-12.8c3.8-4,5.6-8.4,5.6-13.2c0-3.9-1.1-7.1-3.2-9.7S43,43,39,43c-5.5,0-9.2,2.1-11.2,6.2
		c-1.1,2.4-1.8,6.1-2,11.3H8.1c0.3-7.8,1.7-14.2,4.3-19c4.8-9.2,13.4-13.8,25.7-13.8c9.7,0,17.5,2.7,23.3,8.1
		c5.8,5.4,8.6,12.5,8.6,21.4c0,6.8-2,12.9-6.1,18.2c-2.7,3.5-7.1,7.4-13.2,11.7l-7.2,5.1c-4.5,3.2-7.6,5.5-9.3,7s-3.1,3.1-4.2,5
		h40.2V120.2z M135.8,110.2c-4.7,8.2-12.9,12.3-24.7,12.3c-11.7,0-19.9-4.1-24.7-12.3c-4.7-8.2-7.1-19.9-7.1-35.1s2.4-26.9,7.1-35.2
		c4.7-8.3,12.9-12.4,24.7-12.4c11.7,0,19.9,4.1,24.7,12.4s7.1,20,7.1,35.2S140.5,102,135.8,110.2z"/>
	<path class="st0" d="M111.1,42.4c-5.4,0-8.9,2.7-10.7,8c-1.7,5.3-2.6,13.5-2.6,24.6c0,10.6,0.9,18.7,2.6,24.3
		c1.7,5.6,5.3,8.4,10.7,8.4c5.4,0,8.9-2.8,10.6-8.4c1.7-5.6,2.5-13.7,2.5-24.3c0-11.1-0.8-19.3-2.5-24.6S116.5,42.4,111.1,42.4z"/>
</g>
</svg>
