<?xml version="1.0" encoding="utf-8"?>
<!-- Generator: Adobe Illustrator 19.2.1, SVG Export Plug-In . SVG Version: 6.00 Build 0)  -->
<!DOCTYPE svg PUBLIC "-//W3C//DTD SVG 1.1//EN" "http://www.w3.org/Graphics/SVG/1.1/DTD/svg11.dtd">
<svg version="1.1" id="Layer_1" xmlns="http://www.w3.org/2000/svg" xmlns:xlink="http://www.w3.org/1999/xlink" x="0px" y="0px"
	 viewBox="0 0 150 150" style="enable-background:new 0 0 150 150;" xml:space="preserve">
<style type="text/css">
	.st0{fill:#E6E7E8;}
</style>
<path class="st0" d="M0,0v150h150V0H0z M50,120.1H31.5V56.6H9.8V44.3c5.7-0.3,9.7-0.6,12-1.1c3.6-0.8,6.6-2.4,8.9-4.8
	c1.6-1.7,2.7-3.9,3.5-6.6c0.5-1.7,0.7-2.9,0.7-3.7H50V120.1z M132.1,113.5c-5.4,5.9-13.4,8.9-23.9,8.9c-13,0-22.1-4.3-27.1-12.8
	c-2.7-4.5-4.1-10.5-4.4-17.8h17.8c0,3.7,0.6,6.7,1.8,9.1c2.2,4.4,6.2,6.7,12,6.7c3.5,0,6.6-1.2,9.3-3.7c2.6-2.4,4-5.9,4-10.5
	c0-6.1-2.4-10.1-7.3-12.1c-2.8-1.1-7.2-1.7-13.2-1.7V66.7c5.9-0.1,10-0.7,12.3-1.7c4-1.8,6-5.4,6-10.8c0-3.5-1-6.4-3.1-8.6
	c-2-2.2-4.9-3.3-8.6-3.3c-4.3,0-7.4,1.4-9.4,4.1s-3,6.3-2.9,10.9H78.2c0.2-4.6,1-8.9,2.3-13c1.5-3.6,3.8-6.9,7-10
	c2.4-2.2,5.2-3.8,8.4-5c3.3-1.1,7.2-1.7,12-1.7c8.8,0,15.9,2.3,21.3,6.8c5.4,4.5,8.1,10.7,8.1,18.3c0,5.4-1.6,10-4.8,13.7
	c-2,2.3-4.1,3.9-6.3,4.8c1.7,0,4,1.4,7.1,4.3c4.6,4.3,6.9,10.1,6.9,17.5C140.2,100.8,137.5,107.6,132.1,113.5z"/>
</svg>
