<?xml version="1.0" encoding="utf-8"?>
<!-- Generator: Adobe Illustrator 19.2.1, SVG Export Plug-In . SVG Version: 6.00 Build 0)  -->
<!DOCTYPE svg PUBLIC "-//W3C//DTD SVG 1.1//EN" "http://www.w3.org/Graphics/SVG/1.1/DTD/svg11.dtd">
<svg version="1.1" id="Layer_1" xmlns="http://www.w3.org/2000/svg" xmlns:xlink="http://www.w3.org/1999/xlink" x="0px" y="0px"
	 viewBox="0 0 150 150" style="enable-background:new 0 0 150 150;" xml:space="preserve">
<style type="text/css">
	.st0{fill:#E6E7E8;}
</style>
<path class="st0" d="M0,0v150h150V0H0z M50,119.8H31.5V56.3H9.8V44c5.7-0.3,9.7-0.6,12-1.1c3.6-0.8,6.6-2.4,8.9-4.8
	c1.6-1.7,2.7-3.8,3.5-6.6c0.5-1.7,0.7-2.9,0.7-3.7H50V119.8z M132,112.2c-5.5,6.7-13.6,10-24.5,10c-8.8,0-15.9-2.3-21.6-7
	c-5.6-4.7-8.8-11.4-9.4-20h18c0.7,3.9,2.1,7,4.1,9.1c2,2.1,5,3.2,8.9,3.2c4.5,0,7.9-1.6,10.2-4.7s3.5-7.1,3.5-11.9
	c0-4.7-1.1-8.7-3.3-11.9s-5.6-4.9-10.3-4.9c-2.2,0-4.1,0.3-5.7,0.8c-2.8,1-5,2.9-6.4,5.6l-16.2-0.8L85.9,29h50.6v15.4H99l-3.3,20.1
	c2.8-1.8,5-3,6.5-3.6c2.6-1,5.8-1.5,9.6-1.5c7.6,0,14.2,2.6,19.9,7.7c5.7,5.1,8.5,12.6,8.5,22.3C140.2,97.9,137.4,105.5,132,112.2z"
	/>
</svg>
