<?xml version="1.0" encoding="utf-8"?>
<!-- Generator: Adobe Illustrator 19.2.1, SVG Export Plug-In . SVG Version: 6.00 Build 0)  -->
<!DOCTYPE svg PUBLIC "-//W3C//DTD SVG 1.1//EN" "http://www.w3.org/Graphics/SVG/1.1/DTD/svg11.dtd">
<svg version="1.1" id="Layer_1" xmlns="http://www.w3.org/2000/svg" xmlns:xlink="http://www.w3.org/1999/xlink" x="0px" y="0px"
	 viewBox="0 0 150 150" style="enable-background:new 0 0 150 150;" xml:space="preserve">
<style type="text/css">
	.st0{fill:#E6E7E8;}
</style>
<path class="st0" d="M0,0v150h150V0H0z M49.3,121H30.7V57.5H9.1V45.2c5.7-0.3,9.7-0.6,12-1.1c3.6-0.8,6.6-2.4,8.9-4.8
	c1.6-1.7,2.7-3.9,3.5-6.6c0.5-1.7,0.7-2.9,0.7-3.7h15.1V121z M140.9,44.3c-2.7,2.7-6.5,7.4-11.3,14.2c-4.8,6.8-8.9,13.9-12.1,21.2
	c-2.6,5.7-4.9,12.7-7,20.9c-2.1,8.3-3.1,15-3.1,20.3H88.6c0.6-16.5,6-33.7,16.3-51.5c6.6-11,12.2-18.7,16.7-23.1H75.7l0.3-16.2h65
	V44.3z"/>
</svg>
