<?xml version="1.0" encoding="utf-8"?>
<!-- Generator: Adobe Illustrator 19.2.1, SVG Export Plug-In . SVG Version: 6.00 Build 0)  -->
<!DOCTYPE svg PUBLIC "-//W3C//DTD SVG 1.1//EN" "http://www.w3.org/Graphics/SVG/1.1/DTD/svg11.dtd">
<svg version="1.1" id="Layer_1" xmlns="http://www.w3.org/2000/svg" xmlns:xlink="http://www.w3.org/1999/xlink" x="0px" y="0px"
	 viewBox="0 0 150 150" style="enable-background:new 0 0 150 150;" xml:space="preserve">
<style type="text/css">
	.st0{fill:#E6E7E8;}
</style>
<g>
	<path class="st0" d="M75,65.1c3.7,0,6.5-1.1,8.6-3.2c2-2.1,3-4.8,3-8.2c0-3.6-1-6.5-3-8.5c-2-2.1-4.9-3.1-8.6-3.1
		c-3.6,0-6.5,1-8.6,3.1c-2.1,2.1-3.1,4.9-3.1,8.5c0,3.3,1,6.1,3.1,8.2C68.5,64.1,71.4,65.1,75,65.1z"/>
	<path class="st0" d="M75.1,79c-4.1,0-7.3,1.2-9.7,3.7s-3.6,6-3.6,10.7c0,4.5,1.2,8,3.5,10.5c2.3,2.5,5.6,3.7,9.7,3.7
		c4.1,0,7.4-1.2,9.7-3.7c2.3-2.5,3.5-6,3.5-10.5c0-4.7-1.2-8.3-3.6-10.7C82.4,80.2,79.1,79,75.1,79z"/>
	<path class="st0" d="M0,0v150h150V0H0z M98.4,114.3c-5.7,5.4-13.8,8.2-24,8.2c-10.3,0-18.1-2.7-23.4-8.2s-7.9-12-7.9-19.8
		c0-5.2,1.2-9.8,3.5-14s5.8-7.3,10.3-9.5c-4.5-3-7.4-6.2-8.7-9.6c-1.3-3.4-2-6.7-2-9.7c0-6.7,2.5-12.4,7.6-17.1
		c5-4.7,12.2-7.1,21.4-7.1c9.2,0,16.3,2.4,21.4,7.1c5,4.7,7.6,10.4,7.6,17.1c0,3-0.7,6.2-2,9.7c-1.3,3.4-4.2,6.4-8.7,9
		c4.5,2.5,8,5.9,10.3,10.1c2.3,4.2,3.4,8.9,3.4,14C107,102.3,104.1,108.9,98.4,114.3z"/>
</g>
</svg>
