<?xml version="1.0" encoding="utf-8"?>
<!-- Generator: Adobe Illustrator 19.2.1, SVG Export Plug-In . SVG Version: 6.00 Build 0)  -->
<!DOCTYPE svg PUBLIC "-//W3C//DTD SVG 1.1//EN" "http://www.w3.org/Graphics/SVG/1.1/DTD/svg11.dtd">
<svg version="1.1" id="Layer_1" xmlns="http://www.w3.org/2000/svg" xmlns:xlink="http://www.w3.org/1999/xlink" x="0px" y="0px"
	 viewBox="0 0 150 150" style="enable-background:new 0 0 150 150;" xml:space="preserve">
<style type="text/css">
	.st0{fill:#E6E7E8;}
</style>
<g>
	<path class="st0" d="M110.9,79c-4.1,0-7.3,1.2-9.7,3.6c-2.4,2.4-3.6,6-3.6,10.7c0,4.5,1.2,8,3.5,10.5c2.3,2.5,5.6,3.7,9.7,3.7
		c4.1,0,7.4-1.2,9.7-3.7c2.3-2.5,3.5-6,3.5-10.5c0-4.7-1.2-8.3-3.6-10.7C118.2,80.2,115,79,110.9,79z"/>
	<path class="st0" d="M0,0v150h150V0H0z M70.2,120h-63c0.2-6.6,1.6-12.6,4.3-18.1c2.6-6.1,8.7-12.6,18.3-19.5
		c8.3-6,13.7-10.2,16.2-12.8c3.8-4,5.6-8.4,5.6-13.2c0-3.9-1.1-7.1-3.2-9.7s-5.2-3.9-9.3-3.9c-5.5,0-9.2,2.1-11.2,6.2
		c-1.1,2.4-1.8,6.1-2,11.3H8.2c0.3-7.8,1.7-14.2,4.3-19c4.8-9.2,13.4-13.8,25.7-13.8c9.7,0,17.5,2.7,23.3,8.1
		c5.8,5.4,8.6,12.5,8.6,21.4c0,6.8-2,12.9-6.1,18.2c-2.7,3.5-7.1,7.4-13.2,11.7l-7.2,5.1c-4.5,3.2-7.6,5.5-9.3,7s-3.1,3.1-4.2,5
		h40.2V120z M134.2,114.3c-5.7,5.4-13.8,8.2-24,8.2c-10.3,0-18.1-2.7-23.4-8.2c-5.3-5.4-7.9-12-7.9-19.8c0-5.2,1.2-9.8,3.5-14
		s5.8-7.3,10.3-9.5c-4.5-3-7.4-6.2-8.7-9.6c-1.3-3.4-2-6.7-2-9.7c0-6.7,2.5-12.4,7.6-17.1c5-4.7,12.2-7.1,21.4-7.1
		c9.2,0,16.3,2.4,21.4,7.1c5,4.7,7.6,10.4,7.6,17.1c0,3-0.7,6.2-2,9.7c-1.3,3.5-4.2,6.4-8.7,9c4.5,2.5,8,5.9,10.3,10.1
		c2.3,4.2,3.4,8.9,3.4,14C142.8,102.3,140,108.9,134.2,114.3z"/>
	<path class="st0" d="M110.9,65.1c3.7,0,6.5-1.1,8.6-3.2c2-2.1,3-4.8,3-8.2c0-3.6-1-6.5-3-8.5c-2-2.1-4.9-3.1-8.6-3.1
		c-3.6,0-6.5,1-8.6,3.1c-2.1,2.1-3.1,4.9-3.1,8.5c0,3.3,1,6.1,3.1,8.2C104.4,64.1,107.2,65.1,110.9,65.1z"/>
</g>
</svg>
