<?xml version="1.0" encoding="utf-8"?>
<!-- Generator: Adobe Illustrator 19.2.1, SVG Export Plug-In . SVG Version: 6.00 Build 0)  -->
<!DOCTYPE svg PUBLIC "-//W3C//DTD SVG 1.1//EN" "http://www.w3.org/Graphics/SVG/1.1/DTD/svg11.dtd">
<svg version="1.1" id="Layer_1" xmlns="http://www.w3.org/2000/svg" xmlns:xlink="http://www.w3.org/1999/xlink" x="0px" y="0px"
	 viewBox="0 0 150 150" style="enable-background:new 0 0 150 150;" xml:space="preserve">
<style type="text/css">
	.st0{fill:#E6E7E8;}
</style>
<g>
	<path class="st0" d="M108.5,75c-3.1,0-5.8,0.9-8.2,2.8C96.8,80.5,95,85,95,91.1c0,5,1.3,9,4,12.1c2.7,3.1,6.1,4.7,10.2,4.7
		c4,0,7.2-1.5,9.5-4.5c2.3-3,3.5-7,3.5-11.8c0-5.4-1.3-9.5-3.9-12.3C115.6,76.4,112.4,75,108.5,75z"/>
	<path class="st0" d="M0,0v150h150V0H0z M49.7,120.3H31.2V56.8H9.5V44.5c5.7-0.3,9.7-0.6,12-1.1c3.6-0.8,6.6-2.4,8.9-4.8
		c1.6-1.7,2.7-3.8,3.5-6.6c0.5-1.7,0.7-2.9,0.7-3.7h15.1V120.3z M132.8,112.8c-5.1,6.6-13.1,9.8-23.9,9.8
		c-11.6,0-20.1-4.8-25.6-14.5c-4.3-7.6-6.4-17.4-6.4-29.3c0-7,0.3-12.7,0.9-17.1c1.1-7.8,3.1-14.3,6.2-19.6c2.6-4.4,6.1-8,10.3-10.7
		c4.3-2.7,9.3-4.1,15.3-4.1c8.5,0,15.4,2.2,20.4,6.6c5.1,4.4,7.9,10.2,8.6,17.5h-18c0-1.5-0.6-3.1-1.7-4.9c-1.9-2.9-4.9-4.3-8.8-4.3
		c-5.9,0-10.1,3.3-12.6,9.9c-1.4,3.6-2.3,9-2.8,16.1c2.2-2.7,4.8-4.6,7.8-5.8c3-1.2,6.3-1.8,10.2-1.8c8.2,0,14.9,2.8,20.1,8.3
		c5.2,5.5,7.8,12.6,7.8,21.3C140.5,98.7,137.9,106.3,132.8,112.8z"/>
</g>
</svg>
