<?xml version="1.0" encoding="utf-8"?>
<!-- Generator: Adobe Illustrator 19.2.1, SVG Export Plug-In . SVG Version: 6.00 Build 0)  -->
<!DOCTYPE svg PUBLIC "-//W3C//DTD SVG 1.1//EN" "http://www.w3.org/Graphics/SVG/1.1/DTD/svg11.dtd">
<svg version="1.1" id="Layer_1" xmlns="http://www.w3.org/2000/svg" xmlns:xlink="http://www.w3.org/1999/xlink" x="0px" y="0px"
	 viewBox="0 0 150 150" style="enable-background:new 0 0 150 150;" xml:space="preserve">
<style type="text/css">
	.st0{fill:#E6E7E8;}
</style>
<g>
	<path class="st0" d="M108.7,42.4c-5.4,0-8.9,2.7-10.7,8S95.4,64,95.4,75.1c0,10.6,0.9,18.7,2.6,24.3c1.7,5.6,5.3,8.4,10.7,8.4
		s8.9-2.8,10.6-8.4c1.7-5.6,2.5-13.7,2.5-24.3c0-11.1-0.8-19.3-2.5-24.6S114,42.4,108.7,42.4z"/>
	<path class="st0" d="M0,0v150h150V0H0z M49.8,120.2H31.2V56.7H9.6V44.4c5.7-0.3,9.7-0.6,12-1.1c3.6-0.8,6.6-2.4,8.9-4.8
		c1.6-1.7,2.7-3.9,3.5-6.6c0.5-1.7,0.7-2.9,0.7-3.7h15.1V120.2z M133.3,110.2c-4.7,8.2-12.9,12.3-24.7,12.3s-19.9-4.1-24.7-12.3
		s-7.1-19.9-7.1-35.1s2.4-26.9,7.1-35.2S97,27.5,108.7,27.5s19.9,4.1,24.7,12.4s7.1,20,7.1,35.2S138.1,102,133.3,110.2z"/>
</g>
</svg>
