<?xml version="1.0" encoding="utf-8"?>
<!-- Generator: Adobe Illustrator 18.0.0, SVG Export Plug-In . SVG Version: 6.00 Build 0)  -->
<!DOCTYPE svg PUBLIC "-//W3C//DTD SVG 1.1//EN" "http://www.w3.org/Graphics/SVG/1.1/DTD/svg11.dtd">
<svg version="1.1" id="Layer_1" xmlns="http://www.w3.org/2000/svg" xmlns:xlink="http://www.w3.org/1999/xlink" x="0px" y="0px"
	 viewBox="0 0 150 150" enable-background="new 0 0 150 150" xml:space="preserve">
<path fill="#939598" d="M0,0v150h150V0H0z M93.7,103.4c-4.5,4-10.8,6-18.9,6c-4.2,0-7.9-0.6-11.2-1.9c-3.3-1.3-6.2-3-8.9-5.3
	c-1.8-1.6-3.9-4-6.3-7.2l10.7-6.7c3.1,3.4,5.9,5.9,8.5,7.4c2.6,1.5,5.1,2.2,7.7,2.2c3.1,0,5.7-1,7.8-3.1c2.1-2,3.2-4.4,3.2-7.2
	c0-3.5-1.5-6.5-4.5-9c-3-2.4-8.2-3.6-15.6-3.6h-4.5V62.3h3.4c7.9,0,13.5-1.1,16.9-3.4c2.4-1.6,3.6-3.8,3.6-6.4c0-2.2-1-4.2-3.1-6.1
	s-4.5-2.8-7.3-2.8c-4.9,0-9.7,2.5-14.5,7.6l-9.1-8.7c4.7-4,8.8-6.8,12.5-8.4c3.6-1.6,7.6-2.4,11.9-2.4c7.8,0,13.9,2.3,18.3,6.9
	c3.5,3.7,5.2,7.8,5.2,12.4c0,3.7-1.3,7.1-3.9,10.2c-2.6,3.1-6.3,5.2-11.2,6.5c5.3,2.6,9.3,5.7,12,9.2c2.7,3.5,4,7.6,4,12
	C100.5,94.6,98.3,99.5,93.7,103.4z"/>
</svg>
