<?xml version="1.0" encoding="utf-8"?>
<!-- Generator: Adobe Illustrator 18.0.0, SVG Export Plug-In . SVG Version: 6.00 Build 0)  -->
<!DOCTYPE svg PUBLIC "-//W3C//DTD SVG 1.1//EN" "http://www.w3.org/Graphics/SVG/1.1/DTD/svg11.dtd">
<svg version="1.1" id="Layer_1" xmlns="http://www.w3.org/2000/svg" xmlns:xlink="http://www.w3.org/1999/xlink" x="0px" y="0px"
	 viewBox="0 0 150 150" enable-background="new 0 0 150 150" xml:space="preserve">
<path fill="#939598" d="M0,0v150h150V0H0z M100.8,100.9v12.2H48.9v-2.3c0-3.5,0.7-7,2.2-10.3c1.5-3.3,4-6.9,7.5-10.7
	c1.9-2.1,6.4-6.2,13.4-12.4c5.3-4.7,8.5-7.6,9.7-9c1.8-1.9,3-3.7,3.8-5.4c0.8-1.7,1.2-3.4,1.2-4.9c0-2.7-1-5-3.1-6.9
	c-2.1-2-4.7-2.9-7.9-2.9c-3.1,0-5.9,1-8.3,3.1c-2.5,2.1-4.4,5.4-5.7,9.9l-11.2-3c0.8-3.8,2.1-7.1,3.9-9.8c2.6-3.8,5.8-6.7,9.7-8.6
	c3.9-2,8-2.9,12.5-2.9c7.2,0,13.1,2,17.7,6.1c4.6,4.1,6.8,8.8,6.8,14.3c0,3-0.7,5.9-2,8.8c-1.3,2.9-3.2,5.7-5.7,8.4
	c-1.8,2-5.3,5.2-10.6,9.6s-8.9,7.7-11.1,9.8c-2.1,2.2-4.2,4.5-6,7H100.8z"/>
</svg>
